<?xml version="1.0" encoding="utf-8"?>
<!-- Generator: Adobe Illustrator 26.1.0, SVG Export Plug-In . SVG Version: 6.00 Build 0)  -->
<svg version="1.1" id="Livello_1" xmlns="http://www.w3.org/2000/svg" xmlns:xlink="http://www.w3.org/1999/xlink" x="0px" y="0px"
	 viewBox="0 0 24 24" style="enable-background:new 0 0 24 24;" xml:space="preserve">
<style type="text/css">
	.st0{fill:#E95D5D;}
	.st1{fill:#CAD1D8;}
</style>
<g>
	<path class="st0" d="M18.1,10.1l-2.8,2.8l-2.5,2.5l-2.8,2.7c-0.5,0.5-1.4,0.5-1.9,0l-0.6-0.6c-0.5-0.5-0.5-1.4,0-1.9l1.5-1.5L2.9,8
		C2.2,8.6,1.2,8.6,0.5,7.9c-0.7-0.7-0.7-1.8,0-2.5l4.9-4.9c0.7-0.7,1.8-0.7,2.5,0C8.6,1.2,8.6,2.2,8,2.9l6.2,6.2l1.5-1.5
		c0.5-0.5,1.4-0.5,1.9,0l0.6,0.6C18.6,8.7,18.6,9.6,18.1,10.1z"/>
	<polygon class="st1" points="24,21.5 24,24 21.5,24 12.9,15.3 15.3,12.9 	"/>
</g>
</svg>
