<?xml version="1.0" encoding="utf-8"?>
<!-- Generator: Adobe Illustrator 26.1.0, SVG Export Plug-In . SVG Version: 6.00 Build 0)  -->
<svg version="1.1" id="Livello_1" xmlns="http://www.w3.org/2000/svg" xmlns:xlink="http://www.w3.org/1999/xlink" x="0px" y="0px"
	 viewBox="0 0 24 24" style="enable-background:new 0 0 24 24;" xml:space="preserve">
<style type="text/css">
	.st0{fill:#153448;}
</style>
<path class="st0" d="M23.6,21.7l-4.5-4.5c1.5-1.9,2.3-4.2,2.3-6.5c0-2.1-0.6-4.2-1.8-5.9s-2.8-3.1-4.8-3.9c-1.9-0.8-4.1-1-6.2-0.6
	c-2.1,0.4-4,1.4-5.5,2.9S0.6,6.5,0.2,8.6c-0.4,2.1-0.2,4.2,0.6,6.2c0.8,1.9,2.2,3.6,3.9,4.8s3.8,1.8,5.9,1.8c2.4,0,4.7-0.8,6.5-2.3
	l4.5,4.5c0.1,0.1,0.3,0.2,0.4,0.3c0.2,0.1,0.3,0.1,0.5,0.1c0.2,0,0.4,0,0.5-0.1c0.2-0.1,0.3-0.2,0.4-0.3c0.1-0.1,0.2-0.3,0.3-0.4
	C24,23,24,22.8,24,22.7c0-0.2,0-0.4-0.1-0.5C23.8,22,23.7,21.8,23.6,21.7z M2.7,10.7c0-1.6,0.5-3.1,1.3-4.4s2.1-2.3,3.6-2.9
	c1.5-0.6,3.1-0.8,4.6-0.5s3,1.1,4.1,2.2c1.1,1.1,1.9,2.5,2.2,4.1c0.3,1.6,0.2,3.2-0.5,4.6c-0.6,1.5-1.6,2.7-2.9,3.6
	c-1.3,0.9-2.9,1.3-4.4,1.3c-2.1,0-4.2-0.8-5.7-2.3C3.5,14.8,2.7,12.8,2.7,10.7z"/>
</svg>
